{
    "asset" : {
        "generator" : "Khronos glTF Blender I/O v3.3.32",
        "version" : "2.0"
    },
    "scene" : 0,
    "scenes" : [
        {
            "name" : "Scene",
            "nodes" : [
                0,
                1,
                2
            ]
        }
    ],
    "nodes" : [
        {
            "mesh" : 0,
            "name" : "Cylinder",
            "scale" : [
                0.2130180448293686,
                2.9450340270996094,
                0.2130180448293686
            ]
        },
        {
            "mesh" : 1,
            "name" : "Circle.028",
            "rotation" : [
                0.7061858177185059,
                -0.036077357828617096,
                -0.036077484488487244,
                0.7061858773231506
            ],
            "scale" : [
                0.4888880252838135,
                0.48888805508613586,
                0.4888880252838135
            ],
            "translation" : [
                0.05058221518993378,
                9.420732498168945,
                0.21940970420837402
            ]
        },
        {
            "mesh" : 2,
            "name" : "Circle.031",
            "rotation" : [
                0,
                -0.7071066498756409,
                -0.70710688829422,
                3.090860545285068e-08
            ],
            "scale" : [
                0.31747081875801086,
                0.31747084856033325,
                0.31747081875801086
            ],
            "translation" : [
                0.05230399966239929,
                9.070073127746582,
                0.04731891304254532
            ]
        }
    ],
    "meshes" : [
        {
            "name" : "Cylinder.001",
            "primitives" : [
                {
                    "attributes" : {
                        "POSITION" : 0,
                        "NORMAL" : 1,
                        "TEXCOORD_0" : 2
                    },
                    "indices" : 3
                }
            ]
        },
        {
            "name" : "Circle.028",
            "primitives" : [
                {
                    "attributes" : {
                        "POSITION" : 4,
                        "NORMAL" : 5,
                        "TEXCOORD_0" : 6
                    },
                    "indices" : 7
                }
            ]
        },
        {
            "name" : "Circle.031",
            "primitives" : [
                {
                    "attributes" : {
                        "POSITION" : 8,
                        "NORMAL" : 9,
                        "TEXCOORD_0" : 10
                    },
                    "indices" : 11
                }
            ]
        }
    ],
    "accessors" : [
        {
            "bufferView" : 0,
            "componentType" : 5126,
            "count" : 920,
            "max" : [
                13.66067123413086,
                3.1376161575317383,
                4.615478515625
            ],
            "min" : [
                -13.66067123413086,
                -1,
                -1
            ],
            "type" : "VEC3"
        },
        {
            "bufferView" : 1,
            "componentType" : 5126,
            "count" : 920,
            "type" : "VEC3"
        },
        {
            "bufferView" : 2,
            "componentType" : 5126,
            "count" : 920,
            "type" : "VEC2"
        },
        {
            "bufferView" : 3,
            "componentType" : 5123,
            "count" : 1464,
            "type" : "SCALAR"
        },
        {
            "bufferView" : 4,
            "componentType" : 5126,
            "count" : 38,
            "max" : [
                0.9794228672981262,
                0.07074642181396484,
                1.1771585941314697
            ],
            "min" : [
                -0.9794228672981262,
                -0.10551818460226059,
                -1.182411551475525
            ],
            "type" : "VEC3"
        },
        {
            "bufferView" : 5,
            "componentType" : 5126,
            "count" : 38,
            "type" : "VEC3"
        },
        {
            "bufferView" : 6,
            "componentType" : 5126,
            "count" : 38,
            "type" : "VEC2"
        },
        {
            "bufferView" : 7,
            "componentType" : 5123,
            "count" : 96,
            "type" : "SCALAR"
        },
        {
            "bufferView" : 8,
            "componentType" : 5126,
            "count" : 1064,
            "max" : [
                -0.4545111656188965,
                2.921245574951172,
                -1.8264875411987305
            ],
            "min" : [
                -11.011541366577148,
                -0.10551679134368896,
                -21.901958465576172
            ],
            "type" : "VEC3"
        },
        {
            "bufferView" : 9,
            "componentType" : 5126,
            "count" : 1064,
            "type" : "VEC3"
        },
        {
            "bufferView" : 10,
            "componentType" : 5126,
            "count" : 1064,
            "type" : "VEC2"
        },
        {
            "bufferView" : 11,
            "componentType" : 5123,
            "count" : 2688,
            "type" : "SCALAR"
        }
    ],
    "bufferViews" : [
        {
            "buffer" : 0,
            "byteLength" : 11040,
            "byteOffset" : 0,
            "target" : 34962
        },
        {
            "buffer" : 0,
            "byteLength" : 11040,
            "byteOffset" : 11040,
            "target" : 34962
        },
        {
            "buffer" : 0,
            "byteLength" : 7360,
            "byteOffset" : 22080,
            "target" : 34962
        },
        {
            "buffer" : 0,
            "byteLength" : 2928,
            "byteOffset" : 29440,
            "target" : 34963
        },
        {
            "buffer" : 0,
            "byteLength" : 456,
            "byteOffset" : 32368,
            "target" : 34962
        },
        {
            "buffer" : 0,
            "byteLength" : 456,
            "byteOffset" : 32824,
            "target" : 34962
        },
        {
            "buffer" : 0,
            "byteLength" : 304,
            "byteOffset" : 33280,
            "target" : 34962
        },
        {
            "buffer" : 0,
            "byteLength" : 192,
            "byteOffset" : 33584,
            "target" : 34963
        },
        {
            "buffer" : 0,
            "byteLength" : 12768,
            "byteOffset" : 33776,
            "target" : 34962
        },
        {
            "buffer" : 0,
            "byteLength" : 12768,
            "byteOffset" : 46544,
            "target" : 34962
        },
        {
            "buffer" : 0,
            "byteLength" : 8512,
            "byteOffset" : 59312,
            "target" : 34962
        },
        {
            "buffer" : 0,
            "byteLength" : 5376,
            "byteOffset" : 67824,
            "target" : 34963
        }
    ],
    "buffers" : [
        {
            "byteLength" : 73200,
            "uri" : "malunggay.bin"
        }
    ]
}
